<svg width="90" height="80" viewBox="0 0 90 80" fill="none" xmlns="http://www.w3.org/2000/svg">
<path d="M0 0H90V76C90 78.2091 88.2091 80 86 80H4C1.79086 80 0 78.2091 0 76V0Z" fill="white"/>
<mask id="mask0" mask-type="alpha" maskUnits="userSpaceOnUse" x="10" y="23" width="70" height="47">
<path d="M68.5744 28.6517L63.7804 27.9461L64.6961 27.6241C64.863 27.7473 67.6477 28.2665 67.6477 28.2665C67.6477 28.2665 67.7725 26.2945 64.278 25.4934C60.7836 24.6922 59.91 24.6306 59.5356 24.2608C59.5356 24.2608 59.598 25.6782 59.9724 25.9247C59.9724 25.9247 51.673 24.1576 49.489 33.6481C49.489 33.6481 50.6122 33.1967 52.297 32.7037C52.297 32.7037 50.3938 34.1858 50.2269 35.8281C50.2269 35.8281 51.7744 35.2303 52.3579 35.2303C52.3579 35.2303 51.5092 36.0376 50.5872 36.7356C47.7339 33.9978 45.6279 29.3419 44.4766 26.3068C44.1446 25.4324 43.55 24.6789 42.7724 24.1475C41.9948 23.6161 41.0713 23.332 40.1257 23.3333H10V23.5367C10 24.8648 11.312 25.9417 12.9313 25.9417H39.1039C39.1039 25.9417 41.9384 31.2847 44.7746 33.7667C44.7746 33.7667 40.199 29.8165 38.4596 26.5749H15.1575C15.2916 27.6025 16.2822 28.4237 17.5334 28.5331H31.7561L20.0419 29.0338V29.1509C20.0419 30.1492 20.928 30.9735 22.0887 31.1322H33.8185L24.0808 31.5374V31.9349C24.0808 32.8084 24.8281 33.5371 25.8265 33.7189H35.8809L28.1618 34.0456V34.7466C28.1618 35.6448 29.0479 36.372 30.1431 36.372H38.6093C39.5409 37.122 40.5459 37.7785 41.6093 38.3317H41.5672C42.4314 38.8062 44.1318 39.7183 45.1552 40.0819C45.1552 40.0819 41.7232 39.3732 39.3831 37.9773C35.2334 37.8757 30.2616 45.7762 26.9232 47.7097C23.1791 49.8666 18.8812 47.2028 22.6705 44.9519C26.8826 42.4514 25.2056 40.1142 24.2165 39.9478C24.1744 38.1622 21.382 38.5443 19.3196 39.9478C17.2572 41.3514 15.3228 39.9478 15.3228 39.9478C15.3228 39.9478 15.0654 41.7273 19.2229 41.8536C23.3804 41.98 23.7017 40.3268 23.9591 41.9815C24.2165 43.6362 18.3727 45.0505 19.3196 47.7097C21.5036 53.8616 35.5595 45.6729 35.5595 45.6729C33.4971 47.3276 32.8528 49.9375 32.8528 49.9375L28.9855 50.8064L26.0215 58.405H33.6906C33.6906 55.3498 30.2102 56.1125 30.2102 56.1125L31.4348 53.0558C36.9261 52.6984 40.862 49.8327 42.7606 48.0918C42.0508 49.0377 40.926 50.2595 39.1647 51.6045C40.2068 52.2207 42.2988 53.1775 42.2988 53.1775L41.4626 56.1356L44.1724 58.4003H49.1645C49.1645 54.2806 44.8261 55.8089 44.8261 55.8089C45.241 54.4932 46.3486 50.6092 46.9976 48.3198C48.8696 48.8621 50.7588 48.7188 52.3735 48.5293C52.7635 51.6368 53.2674 55.7504 53.2674 55.7504L53.0755 58.4003H59.5839C59.5839 55.5994 56.2969 55.8536 56.2969 55.8536C56.194 54.9924 57.2423 53.7722 57.545 52.2778C56.8321 51.4476 56.3162 50.4707 56.0349 49.4183C57.2954 51.8741 61.3608 53.9848 61.3608 53.9848L63.445 58.4003H69.6305C69.6305 54.3268 65.5058 55.4731 65.5058 55.4731L63.6805 47.9608C65.356 46.9209 65.5931 45.4156 65.5931 45.4156C66.6742 45.827 66.7054 47.1227 66.7054 47.1227C69.4511 45.8902 66.381 40.7582 66.381 40.7582C67.1922 40.9231 68.3778 42.3805 68.3778 42.3805C68.4402 41.7643 67.2546 39.4841 64.3217 38.0667C61.3889 36.6493 61.3265 34.8621 61.3265 34.8621C62.2625 36.7109 64.7585 37.3272 64.7585 37.3272C64.3841 36.7109 64.8833 36.033 64.8833 36.033C64.8833 36.033 66.069 37.019 66.381 38.4365C66.381 38.4365 69.6258 38.0667 69.0642 35.1702C69.0642 35.1702 67.6321 35.8481 67.0065 35.1702C66.381 34.4924 65.5105 33.2598 67.0065 32.2122C68.5026 31.1645 69.7506 33.0133 69.6882 34.2459C69.6882 34.2459 70.2498 33.568 70.3746 33.1366C70.3746 33.1366 71.1858 32.8901 70.8114 31.2878C70.8114 31.2878 71.4354 31.1029 71.5602 30.918C71.685 30.7331 72.1827 30.2032 68.5744 28.6517Z" fill="white"/>
<path d="M13.3743 62.5416H17.3509C17.7788 62.535 18.2056 62.5868 18.6192 62.6957C18.9418 62.7802 19.2459 62.9228 19.5162 63.1163C19.7439 63.2819 19.9266 63.5005 20.0481 63.7526C20.1644 64.0023 20.2235 64.2743 20.2213 64.5491C20.2293 65.0001 20.0701 65.4385 19.7736 65.7816C20.0996 65.9644 20.3659 66.2354 20.5411 66.5628C20.7128 66.901 20.799 67.2753 20.7923 67.6536C20.7966 67.9699 20.7378 68.2841 20.6191 68.5779C20.5042 68.8529 20.3226 69.0958 20.0903 69.2851C19.8266 69.4952 19.5217 69.6489 19.1948 69.7365C18.78 69.8472 18.3514 69.8991 17.9218 69.8906H13.3743V62.5416ZM17.9312 65.3626C18.0607 65.3626 18.1886 65.3626 18.3118 65.378C18.4097 65.2915 18.4881 65.1856 18.5419 65.0672C18.5956 64.9488 18.6236 64.8206 18.6238 64.6909C18.6292 64.5704 18.6034 64.4506 18.5488 64.3428C18.4942 64.2349 18.4126 64.1426 18.3118 64.0746C18.0337 63.9104 17.7117 63.833 17.3883 63.8527H14.8922V65.361L17.9312 65.3626ZM17.9593 68.598C18.2919 68.621 18.6221 68.5277 18.8922 68.3345C18.9973 68.2449 19.0802 68.1325 19.1343 68.0061C19.1884 67.8797 19.2123 67.7428 19.2042 67.6058C19.2118 67.4682 19.1878 67.3307 19.1337 67.2036C19.0796 67.0766 18.9971 66.9633 18.8922 66.8724C18.6219 66.6772 18.29 66.5838 17.9561 66.609H14.8844V68.5934L17.9593 68.598Z" fill="white"/>
<path d="M22.3242 62.5416H26.1088C26.6098 62.5326 27.1096 62.5923 27.594 62.7188C27.9738 62.8159 28.3291 62.9896 28.6376 63.2288C28.9116 63.4438 29.1263 63.7236 29.2617 64.0422C29.4004 64.3851 29.4693 64.7515 29.4645 65.1207C29.4655 65.3833 29.4314 65.6449 29.3631 65.8987C29.2974 66.1405 29.192 66.3701 29.0511 66.5782C28.9086 66.789 28.7327 66.9758 28.53 67.1313C28.3049 67.3001 28.0557 67.4351 27.7906 67.5318L29.4099 69.8829H27.5581L26.1541 67.7953H23.825V69.8875H22.3242V62.5416ZM26.1478 66.5104C26.4011 66.515 26.6535 66.4818 26.8967 66.4118C27.0927 66.355 27.2756 66.2608 27.4349 66.1345C27.5778 66.0184 27.6893 65.8691 27.7594 65.7C27.8319 65.518 27.8679 65.3239 27.8654 65.1284C27.8756 64.9476 27.8422 64.767 27.7679 64.6015C27.6936 64.4359 27.5805 64.2902 27.438 64.1763C27.1509 63.9513 26.7219 63.8404 26.1478 63.8404H23.8296V66.5104H26.1478Z" fill="white"/>
<path d="M31.0479 62.5416H32.5674V69.8906H31.0479V62.5416Z" fill="white"/>
<path d="M34.4924 62.5416H36.0025V68.5841H40.3269V69.8906H34.4924V62.5416Z" fill="white"/>
<path d="M41.5984 62.5416H43.1163V69.8906H41.5984V62.5416Z" fill="white"/>
<path d="M44.603 66.1961C44.5974 65.6722 44.7037 65.153 44.915 64.6724C45.1153 64.2197 45.4117 63.8146 45.7839 63.4845C46.1754 63.1431 46.6314 62.8813 47.1255 62.7142C48.2527 62.3506 49.4678 62.3506 50.595 62.7142C51.0903 62.8809 51.5473 63.1427 51.9398 63.4845C52.312 63.8146 52.6083 64.2197 52.8087 64.6724C53.02 65.153 53.1263 65.6722 53.1207 66.1961C53.1268 66.7255 53.0205 67.2504 52.8087 67.7367C52.6086 68.1936 52.3124 68.6033 51.9398 68.9385C51.548 69.2841 51.091 69.5501 50.595 69.7211C49.4692 70.093 48.2514 70.093 47.1255 69.7211C46.6307 69.5497 46.1748 69.2837 45.7839 68.9385C45.4113 68.6033 45.1151 68.1936 44.915 67.7367C44.7031 67.2504 44.5969 66.7255 44.603 66.1961ZM46.1115 66.1961C46.1058 66.5483 46.1765 66.8977 46.319 67.2206C46.4515 67.5181 46.6479 67.7836 46.8947 67.9987C47.1499 68.2185 47.4461 68.387 47.7667 68.4948C48.4758 68.7268 49.2417 68.7268 49.9507 68.4948C50.2707 68.3877 50.566 68.2191 50.8197 67.9987C51.0654 67.7823 51.262 67.5172 51.3969 67.2206C51.5399 66.8978 51.6112 66.5484 51.6059 66.1961C51.6116 65.8447 51.5403 65.4963 51.3969 65.1746C51.2631 64.8797 51.0662 64.6168 50.8197 64.4043C50.5649 64.1902 50.2695 64.0283 49.9507 63.9282C49.2397 63.7084 48.4777 63.7084 47.7667 63.9282C47.4473 64.029 47.151 64.1908 46.8947 64.4043C46.6472 64.6156 46.4505 64.8788 46.319 65.1746C46.1762 65.4964 46.1054 65.8448 46.1115 66.1961Z" fill="white"/>
<path d="M54.7806 62.5416H56.2907L60.9271 64.9404V62.5416H62.4372V69.8906H60.9271V66.5196L56.2907 64.1362V69.8906H54.7806V62.5416Z" fill="white"/>
<path d="M64.5323 68.6118L67.1547 66.8355C67.5479 66.5684 67.8703 66.3363 68.1219 66.1391C68.3318 65.978 68.5289 65.8013 68.7116 65.6106C68.8331 65.4872 68.9328 65.3445 69.0065 65.1885C69.0595 65.0701 69.0871 64.9421 69.0876 64.8126C69.0887 64.673 69.0578 64.535 68.9971 64.4089C68.9322 64.2776 68.8352 64.1642 68.7148 64.0792C68.5648 63.9757 68.3965 63.901 68.2187 63.8589C67.983 63.8013 67.7407 63.7743 67.4979 63.7788C67.0874 63.7797 66.6789 63.8367 66.2842 63.9483C65.8505 64.0739 65.4356 64.2557 65.0503 64.489L64.356 63.3597C64.8293 63.072 65.3392 62.8476 65.8724 62.6926C66.4295 62.5305 67.0076 62.4496 67.5884 62.4523C68.05 62.4432 68.5102 62.5061 68.9519 62.6387C69.3 62.7439 69.6239 62.9156 69.9051 63.144C70.1481 63.3455 70.3409 63.5996 70.4682 63.8866C70.5927 64.17 70.6559 64.4759 70.6539 64.7848C70.6551 65.0239 70.6134 65.2612 70.5306 65.4858C70.429 65.7397 70.2821 65.9734 70.0969 66.1761C69.8441 66.4583 69.5646 66.7163 69.2623 66.9464C68.9118 67.2206 68.4698 67.5318 67.9363 67.88L66.8443 68.5857H70.9191V69.8921H64.523L64.5323 68.6118Z" fill="white"/>
<path d="M72.5353 67.0142L76.8862 62.5463H78.3963V67.0142H80V68.3207H78.3963V69.8906H76.8862V68.3207H72.5259L72.5353 67.0142ZM76.8862 67.0142V64.4274L74.3433 67.0142H76.8862Z" fill="white"/>
</mask>
<g mask="url(#mask0)">
<rect x="10" y="-1.94443" width="70" height="71.9444" fill="black"/>
</g>
</svg>
