<svg width="90" height="80" viewBox="0 0 90 80" fill="none" xmlns="http://www.w3.org/2000/svg">
<path d="M0 0H90V76C90 78.2091 88.2091 80 86 80H4C1.79086 80 0 78.2091 0 76V0Z" fill="black" fill-opacity="0.63"/>
<mask id="mask0" mask-type="alpha" maskUnits="userSpaceOnUse" x="10" y="23" width="70" height="48">
<path d="M68.5744 28.6519L63.7804 27.9463L64.6961 27.6243C64.863 27.7475 67.6477 28.2667 67.6477 28.2667C67.6477 28.2667 67.7725 26.2947 64.278 25.4936C60.7836 24.6924 59.91 24.6308 59.5356 24.261C59.5356 24.261 59.598 25.6784 59.9724 25.9249C59.9724 25.9249 51.673 24.1578 49.489 33.6483C49.489 33.6483 50.6122 33.1969 52.297 32.7039C52.297 32.7039 50.3938 34.186 50.2269 35.8283C50.2269 35.8283 51.7744 35.2305 52.3579 35.2305C52.3579 35.2305 51.5092 36.0378 50.5872 36.7358C47.7339 33.998 45.6279 29.3421 44.4766 26.307C44.1446 25.4326 43.55 24.6791 42.7724 24.1477C41.9948 23.6163 41.0713 23.3322 40.1257 23.3335H10V23.5369C10 24.865 11.312 25.9419 12.9313 25.9419H39.1039C39.1039 25.9419 41.9384 31.2849 44.7746 33.7669C44.7746 33.7669 40.199 29.8167 38.4596 26.5751H15.1575C15.2916 27.6027 16.2822 28.4239 17.5334 28.5333H31.7561L20.0419 29.034V29.1511C20.0419 30.1494 20.928 30.9737 22.0887 31.1324H33.8185L24.0808 31.5376V31.9351C24.0808 32.8086 24.8281 33.5373 25.8265 33.7191H35.8809L28.1618 34.0458V34.7468C28.1618 35.645 29.0479 36.3722 30.1431 36.3722H38.6093C39.5409 37.1222 40.5459 37.7787 41.6093 38.3319H41.5672C42.4314 38.8064 44.1318 39.7185 45.1552 40.0821C45.1552 40.0821 41.7232 39.3734 39.3831 37.9775C35.2334 37.8759 30.2616 45.7764 26.9232 47.7099C23.1791 49.8668 18.8812 47.203 22.6705 44.9521C26.8826 42.4516 25.2056 40.1144 24.2165 39.948C24.1744 38.1624 21.382 38.5445 19.3196 39.948C17.2572 41.3516 15.3228 39.948 15.3228 39.948C15.3228 39.948 15.0654 41.7275 19.2229 41.8538C23.3804 41.9802 23.7017 40.327 23.9591 41.9817C24.2165 43.6364 18.3727 45.0507 19.3196 47.7099C21.5036 53.8618 35.5595 45.6731 35.5595 45.6731C33.4971 47.3278 32.8528 49.9377 32.8528 49.9377L28.9855 50.8066L26.0215 58.4052H33.6906C33.6906 55.35 30.2102 56.1127 30.2102 56.1127L31.4348 53.056C36.9261 52.6986 40.862 49.8329 42.7606 48.092C42.0508 49.0379 40.926 50.2597 39.1647 51.6047C40.2068 52.2209 42.2988 53.1777 42.2988 53.1777L41.4626 56.1358L44.1724 58.4005H49.1645C49.1645 54.2808 44.8261 55.8091 44.8261 55.8091C45.241 54.4934 46.3486 50.6094 46.9976 48.32C48.8696 48.8623 50.7588 48.719 52.3735 48.5295C52.7635 51.637 53.2674 55.7506 53.2674 55.7506L53.0755 58.4005H59.5839C59.5839 55.5996 56.2969 55.8538 56.2969 55.8538C56.194 54.9926 57.2423 53.7724 57.545 52.278C56.8321 51.4478 56.3162 50.4709 56.0349 49.4185C57.2954 51.8743 61.3608 53.985 61.3608 53.985L63.445 58.4005H69.6305C69.6305 54.327 65.5058 55.4733 65.5058 55.4733L63.6805 47.961C65.356 46.9211 65.5931 45.4158 65.5931 45.4158C66.6742 45.8272 66.7054 47.1229 66.7054 47.1229C69.4511 45.8904 66.381 40.7584 66.381 40.7584C67.1922 40.9233 68.3778 42.3807 68.3778 42.3807C68.4402 41.7645 67.2546 39.4843 64.3217 38.0669C61.3889 36.6495 61.3265 34.8623 61.3265 34.8623C62.2625 36.7111 64.7585 37.3274 64.7585 37.3274C64.3841 36.7111 64.8833 36.0332 64.8833 36.0332C64.8833 36.0332 66.069 37.0192 66.381 38.4367C66.381 38.4367 69.6258 38.0669 69.0642 35.1704C69.0642 35.1704 67.6321 35.8483 67.0065 35.1704C66.381 34.4926 65.5105 33.26 67.0065 32.2124C68.5026 31.1647 69.7506 33.0135 69.6882 34.2461C69.6882 34.2461 70.2498 33.5682 70.3746 33.1368C70.3746 33.1368 71.1858 32.8903 70.8114 31.288C70.8114 31.288 71.4354 31.1031 71.5602 30.9182C71.685 30.7333 72.1827 30.2034 68.5744 28.6519Z" fill="white"/>
<path d="M13.3745 62.5416H17.3511C17.779 62.535 18.2058 62.5868 18.6194 62.6957C18.942 62.7802 19.2461 62.9228 19.5164 63.1163C19.7441 63.2819 19.9268 63.5005 20.0483 63.7526C20.1646 64.0023 20.2237 64.2743 20.2215 64.5491C20.2295 65.0001 20.0703 65.4385 19.7738 65.7816C20.0998 65.9644 20.3661 66.2354 20.5413 66.5628C20.713 66.901 20.7992 67.2753 20.7925 67.6536C20.7968 67.9699 20.738 68.2841 20.6193 68.5779C20.5044 68.8529 20.3228 69.0958 20.0905 69.2851C19.8268 69.4952 19.5219 69.6489 19.195 69.7365C18.7802 69.8472 18.3516 69.8991 17.922 69.8906H13.3745V62.5416ZM17.9314 65.3626C18.0609 65.3626 18.1888 65.3626 18.312 65.378C18.4099 65.2915 18.4883 65.1856 18.5421 65.0672C18.5958 64.9488 18.6238 64.8206 18.624 64.6909C18.6294 64.5704 18.6036 64.4506 18.549 64.3428C18.4944 64.2349 18.4128 64.1426 18.312 64.0746C18.0339 63.9104 17.7119 63.833 17.3885 63.8527H14.8924V65.361L17.9314 65.3626ZM17.9595 68.598C18.2921 68.621 18.6223 68.5277 18.8924 68.3345C18.9975 68.2449 19.0804 68.1325 19.1345 68.0061C19.1886 67.8797 19.2125 67.7428 19.2044 67.6058C19.212 67.4682 19.188 67.3307 19.1339 67.2036C19.0798 67.0766 18.9973 66.9633 18.8924 66.8724C18.6221 66.6772 18.2902 66.5838 17.9563 66.609H14.8846V68.5934L17.9595 68.598Z" fill="white"/>
<path d="M22.3242 62.5419H26.1088C26.6098 62.5329 27.1096 62.5926 27.594 62.7191C27.9738 62.8162 28.3291 62.9899 28.6376 63.2291C28.9116 63.4441 29.1263 63.7239 29.2617 64.0425C29.4004 64.3854 29.4693 64.7518 29.4645 65.121C29.4655 65.3836 29.4314 65.6452 29.3631 65.899C29.2974 66.1408 29.192 66.3704 29.0511 66.5785C28.9086 66.7893 28.7327 66.9761 28.53 67.1316C28.3049 67.3004 28.0557 67.4354 27.7906 67.5321L29.4099 69.8832H27.5581L26.1541 67.7956H23.825V69.8878H22.3242V62.5419ZM26.1478 66.5107C26.4011 66.5153 26.6535 66.4821 26.8967 66.4121C27.0927 66.3553 27.2756 66.2611 27.4349 66.1348C27.5778 66.0187 27.6893 65.8694 27.7594 65.7003C27.8319 65.5183 27.8679 65.3242 27.8654 65.1287C27.8756 64.9479 27.8422 64.7673 27.7679 64.6018C27.6936 64.4362 27.5805 64.2905 27.438 64.1766C27.1509 63.9516 26.7219 63.8407 26.1478 63.8407H23.8296V66.5107H26.1478Z" fill="white"/>
<path d="M31.0479 62.542H32.5674V69.891H31.0479V62.542Z" fill="white"/>
<path d="M34.4922 62.542H36.0023V68.5845H40.3267V69.891H34.4922V62.542Z" fill="white"/>
<path d="M41.5986 62.542H43.1165V69.891H41.5986V62.542Z" fill="white"/>
<path d="M44.6028 66.1965C44.5972 65.6726 44.7035 65.1534 44.9148 64.6728C45.1151 64.2201 45.4115 63.815 45.7837 63.4849C46.1752 63.1435 46.6312 62.8817 47.1253 62.7146C48.2525 62.351 49.4676 62.351 50.5948 62.7146C51.0901 62.8813 51.5471 63.1431 51.9396 63.4849C52.3118 63.815 52.6081 64.2201 52.8085 64.6728C53.0198 65.1534 53.1261 65.6726 53.1205 66.1965C53.1266 66.7259 53.0203 67.2508 52.8085 67.7371C52.6084 68.194 52.3122 68.6037 51.9396 68.9389C51.5478 69.2845 51.0908 69.5505 50.5948 69.7215C49.469 70.0934 48.2512 70.0934 47.1253 69.7215C46.6305 69.5501 46.1746 69.2841 45.7837 68.9389C45.4111 68.6037 45.1149 68.194 44.9148 67.7371C44.7029 67.2508 44.5967 66.7259 44.6028 66.1965ZM46.1113 66.1965C46.1056 66.5487 46.1763 66.8981 46.3188 67.221C46.4513 67.5185 46.6477 67.784 46.8945 67.9991C47.1497 68.2189 47.4459 68.3874 47.7665 68.4952C48.4756 68.7272 49.2415 68.7272 49.9505 68.4952C50.2705 68.3881 50.5658 68.2195 50.8195 67.9991C51.0652 67.7827 51.2618 67.5176 51.3967 67.221C51.5397 66.8982 51.611 66.5488 51.6057 66.1965C51.6114 65.8451 51.5401 65.4967 51.3967 65.175C51.2629 64.8801 51.066 64.6172 50.8195 64.4047C50.5647 64.1906 50.2693 64.0287 49.9505 63.9286C49.2395 63.7088 48.4775 63.7088 47.7665 63.9286C47.4471 64.0294 47.1508 64.1912 46.8945 64.4047C46.647 64.616 46.4503 64.8792 46.3188 65.175C46.176 65.4968 46.1052 65.8452 46.1113 66.1965Z" fill="white"/>
<path d="M54.7808 62.542H56.2909L60.9273 64.9408V62.542H62.4374V69.891H60.9273V66.52L56.2909 64.1366V69.891H54.7808V62.542Z" fill="white"/>
<path d="M64.5323 68.612L67.1547 66.8357C67.5479 66.5686 67.8703 66.3365 68.1219 66.1393C68.3318 65.9782 68.5289 65.8015 68.7116 65.6108C68.8331 65.4874 68.9328 65.3447 69.0065 65.1887C69.0595 65.0703 69.0871 64.9423 69.0876 64.8128C69.0887 64.6732 69.0578 64.5352 68.9971 64.4091C68.9322 64.2778 68.8352 64.1644 68.7148 64.0794C68.5648 63.9759 68.3965 63.9012 68.2187 63.8591C67.983 63.8015 67.7407 63.7745 67.4979 63.779C67.0874 63.7799 66.6789 63.8369 66.2842 63.9485C65.8505 64.0741 65.4356 64.2559 65.0503 64.4892L64.356 63.3599C64.8293 63.0722 65.3392 62.8478 65.8724 62.6928C66.4295 62.5307 67.0076 62.4498 67.5884 62.4525C68.05 62.4434 68.5102 62.5063 68.9519 62.6389C69.3 62.7441 69.6239 62.9158 69.9051 63.1442C70.1481 63.3457 70.3409 63.5998 70.4682 63.8868C70.5927 64.1702 70.6559 64.4761 70.6539 64.785C70.6551 65.0241 70.6134 65.2614 70.5306 65.486C70.429 65.7399 70.2821 65.9736 70.0969 66.1763C69.8441 66.4585 69.5646 66.7165 69.2623 66.9466C68.9118 67.2208 68.4698 67.532 67.9363 67.8802L66.8443 68.5859H70.9191V69.8923H64.523L64.5323 68.612Z" fill="white"/>
<path d="M72.5353 67.0143L76.8862 62.5464H78.3963V67.0143H80V68.3208H78.3963V69.8907H76.8862V68.3208H72.5259L72.5353 67.0143ZM76.8862 67.0143V64.4275L74.3433 67.0143H76.8862Z" fill="white"/>
</mask>
<g mask="url(#mask0)">
</g>
<g clip-path="url(#clip0)">
<path d="M28.1175 29.0407C28.4644 28.6993 28.8285 28.3766 29.2087 28.0729C29.6629 27.6857 29.7258 27.0069 29.3502 26.5432C28.9745 26.0794 28.2978 25.9994 27.8249 26.3634C27.3843 26.7149 26.9629 27.0895 26.5621 27.4853C26.2761 27.7613 26.1612 28.1706 26.262 28.5548C26.3627 28.9395 26.6628 29.2402 27.0475 29.3409C27.4322 29.4416 27.8411 29.3268 28.1175 29.0407Z" fill="white"/>
<path d="M19.0907 14.5118C21.0821 13.7257 23.266 13.5696 25.3486 14.0636C24.7121 14.1165 24.0877 14.268 23.4976 14.5128C19.8127 16.0561 18.7281 20.7606 18.6838 20.962C18.5529 21.5537 18.925 22.1403 19.5166 22.2733C19.5957 22.2909 19.6763 22.2999 19.7573 22.3004C20.272 22.3009 20.7181 21.9444 20.8309 21.4424C20.8389 21.4052 21.7221 17.6357 24.3511 16.54C25.5173 16.116 26.8008 16.1498 27.9438 16.6337C25.328 17.9172 21.6164 20.9057 20.8641 27.6797C20.7971 28.2835 21.2327 28.8273 21.8364 28.8937C22.4402 28.9607 22.984 28.5252 23.051 27.9214C23.7947 21.2314 27.7223 18.9524 29.7334 18.2163C30.0063 20.6901 30.9937 22.667 32.381 25.44C33.173 27.0251 34.1585 28.9965 35.2466 31.5338C37.8866 37.694 37.5951 46.9611 37.4244 49.8826H19.9134C19.2704 44.2088 20.6325 38.4886 23.7635 33.7131C23.8999 33.493 24.0475 33.2815 24.194 33.0706L24.3677 32.8188C24.5888 32.4935 24.62 32.0756 24.4488 31.7211C24.2781 31.3671 23.9316 31.1309 23.5394 31.1017C23.1471 31.073 22.7695 31.2553 22.5479 31.5801L22.3833 31.8198C22.2181 32.0595 22.053 32.3007 21.9115 32.5283C17.1908 39.7505 16.2497 48.8076 19.3837 56.846C19.3933 56.8722 19.4023 56.8974 19.4144 56.9225C21.1617 61.3436 24.0454 65.2243 27.7741 68.1725C27.8159 68.2108 27.8607 68.2456 27.9086 68.2768C37.6605 75.9079 51.3587 75.9079 61.1107 68.2768C61.158 68.2456 61.2029 68.2108 61.2446 68.1725C64.9733 65.2243 67.8576 61.3436 69.6048 56.9225C69.6169 56.8974 69.6255 56.8722 69.6356 56.846C71.8823 51.0861 72.0611 44.7249 70.1416 38.8476C69.9518 38.2706 69.3299 37.9569 68.7529 38.1467C68.1758 38.3365 67.8616 38.9579 68.0514 39.5355C68.8566 41.9922 69.2655 44.5618 69.2614 47.1469C69.2599 48.0613 69.2081 48.9747 69.1053 49.8826H61.4471C61.5186 49.4929 61.5553 49.0971 61.5573 48.7003C61.5573 45.0552 58.6021 42.1005 54.957 42.1005C51.3119 42.1005 48.3572 45.0552 48.3572 48.7003C48.3592 49.0971 48.3959 49.4929 48.4674 49.8826H43.5021C44.9044 46.0119 47.0535 41.2268 49.9544 38.0097C51.8023 35.9659 53.3719 34.4226 54.6337 33.1818C56.8483 31.0061 58.4264 29.4537 59.4848 27.1953C61.1525 28.5453 64.1289 31.9719 62.6747 38.541C62.5624 39.1256 62.9355 39.6941 63.5171 39.8225C64.0987 39.9514 64.6772 39.5939 64.8218 39.0158C66.2971 32.3656 63.7528 28.3383 61.6923 26.2759C62.929 26.1882 64.1531 26.5709 65.1199 27.3474C67.2548 29.2351 66.8712 33.0872 66.8666 33.1255C66.8027 33.7277 67.2372 34.2685 67.8389 34.3354C67.8802 34.341 67.921 34.3435 67.9623 34.3435C68.5222 34.342 68.992 33.9205 69.0535 33.3641C69.0766 33.1607 69.5726 28.357 66.5872 25.7064C66.1179 25.2909 65.5871 24.95 65.0146 24.6953C67.13 24.9123 69.131 25.7612 70.7574 27.1319C71.2121 27.5015 71.8773 27.4501 72.2696 27.014C72.6613 26.5785 72.6427 25.9113 72.2273 25.4984C69.6562 23.2229 66.2221 22.1786 62.8197 22.6383C64.4668 21.5572 66.5016 21.243 68.3979 21.7758C68.9734 21.9711 69.5978 21.663 69.7932 21.0879C69.9885 20.5124 69.6804 19.888 69.1053 19.6926C66.2735 18.887 63.2271 19.4842 60.9083 21.2984C60.6852 19.2148 59.6459 17.3044 58.0175 15.9856C57.7229 15.7041 57.2974 15.6085 56.9107 15.7364C56.5245 15.8648 56.24 16.1961 56.1725 16.5974C56.1046 16.9992 56.2642 17.4051 56.5874 17.6533C57.8921 18.682 58.6801 20.2309 58.7446 21.8916C58.1368 20.9419 57.3004 20.1609 56.3115 19.6201C52.5627 17.5652 47.6819 19.4691 47.476 19.5527C46.9276 19.7878 46.6663 20.4172 46.8873 20.9716C47.1084 21.526 47.7318 21.803 48.2912 21.5955C48.332 21.5789 52.4031 19.9872 55.2541 21.5492C56.0023 21.9737 56.6182 22.5975 57.0331 23.3508C52.0994 21.7682 47.5354 25.1429 45.5842 27.5166C45.3344 27.8202 45.2654 28.2341 45.4034 28.6022C45.5419 28.9703 45.8657 29.2366 46.2534 29.3011C46.6411 29.3656 47.0339 29.2185 47.2836 28.9149C47.4916 28.6616 52.2334 23.0331 57.6147 25.9974C56.735 28.0372 55.3674 29.3847 53.0959 31.6174C51.8144 32.8782 50.2182 34.4467 48.3254 36.5389C44.9955 40.2339 42.633 45.7073 41.1752 49.8871H39.6354C39.8247 46.6665 40.0876 37.2373 37.2713 30.6717C36.1595 28.0755 35.1575 26.0714 34.3523 24.4611C32.9253 21.6121 32.0773 19.8961 31.8946 17.6805C37.9173 16.6246 40.6113 23.4777 40.7276 23.7844C40.9491 24.3403 41.574 24.6172 42.1345 24.4077C42.6949 24.1983 42.9854 23.5794 42.788 23.0145C41.708 20.1347 38.4773 15.4564 33.2838 15.3683C33.9238 14.7887 34.7113 14.398 35.5598 14.2398C38.7447 13.69 42.1093 16.5093 42.1435 16.5365C42.6063 16.9126 43.2845 16.8512 43.6728 16.398C44.0605 15.9448 44.0167 15.265 43.5736 14.8657C43.4049 14.7217 39.4013 11.337 35.1912 12.0716C34.0809 12.2635 33.0366 12.7318 32.1544 13.4327C32.7521 11.8833 33.9983 10.6738 35.5643 10.1224C36.1288 9.89736 36.4037 9.25686 36.1781 8.6924C35.9526 8.12844 35.3126 7.85351 34.7481 8.07859C32.7803 8.80015 31.179 10.272 30.2943 12.1718C28.687 9.70501 25.9977 8.15512 23.0575 8.00054C22.4497 7.99903 21.9563 8.49048 21.9548 9.09774C21.9533 9.70551 22.4442 10.199 23.052 10.2005C25.0203 10.3092 26.8451 11.266 28.0536 12.8229C24.981 11.2886 21.3928 11.1683 18.2241 12.4931C17.8575 12.6441 17.6002 12.981 17.5513 13.3748C17.5025 13.7685 17.6697 14.1578 17.9884 14.3939C18.3072 14.6301 18.7286 14.6764 19.0907 14.5148V14.5118ZM65.0771 60.8421H23.9377C23.2363 59.7977 22.6154 58.7015 22.0806 57.563H66.9326C66.3983 58.7015 65.778 59.7977 65.0771 60.8421ZM32.1982 68.521H56.8171C49.1925 72.8922 39.8217 72.8922 32.1972 68.521H32.1982ZM60.0412 66.321H28.9741C27.752 65.3361 26.6256 64.2384 25.6094 63.042H63.4053C62.3892 64.2384 61.2623 65.3361 60.0402 66.321H60.0412ZM67.8405 55.3631H21.1753C20.7931 54.2926 20.486 53.1964 20.2568 52.0826H68.7579C68.5288 53.1964 68.2216 54.2926 67.8389 55.3631H67.8405ZM50.5571 48.7003C50.5571 46.2703 52.5269 44.3004 54.957 44.3004C57.3871 44.3004 59.3569 46.2703 59.3569 48.7003C59.3503 49.1006 59.2904 49.4984 59.1776 49.8826H50.7364C50.6241 49.4984 50.5636 49.1006 50.5571 48.7003Z" fill="white"/>
</g>
<defs>
<clipPath id="clip0">
<rect x="12" y="8" width="66" height="66" fill="white"/>
</clipPath>
</defs>
</svg>
